<svg width="292" height="212" viewBox="0 0 292 212" fill="none" xmlns="http://www.w3.org/2000/svg">
<g id="logo">
<rect x="2" y="2" width="288" height="208" rx="10" stroke="#DBF226" stroke-width="4"/>
<g id="logo_characters">
<path id="logo_J" d="M90.2535 143.52C87.7138 146.055 84.7276 147.852 81.3228 148.934C77.918 150.017 74.7365 150.546 71.7783 150.546C66.9501 150.546 62.7081 150.123 59.0242 149.225C55.7737 148.433 51.9582 146.92 47.6161 144.652L46.7632 146.463M90.2535 143.52L90.2814 171.676C86.7928 172.574 83.5276 173.129 80.4298 173.393C77.3599 173.657 74.7923 173.763 72.783 173.763C66.3641 173.763 60.1126 173.102 54.0845 171.755C48.0563 170.408 42.0282 168.057 36 164.624M90.2535 143.52C94.942 138.713 97.2863 131.977 97.2863 123.367V63.5606V61.5606H95.2863H42.8281V59.5606M90.2535 143.52L124.832 40.3701H122.832M46.7632 146.463C46.1827 146.161 45.5942 145.845 44.9978 145.518L36 164.624M46.7632 146.463L38.6077 163.781M46.7632 146.463C51.172 148.761 55.1178 150.331 58.5505 151.168C62.4315 152.114 66.8405 152.546 71.7783 152.546C74.9748 152.546 78.3619 151.975 81.929 150.84C85.6325 149.662 88.8969 147.701 91.6666 144.935L91.6759 144.926L91.6852 144.916C96.834 139.637 99.2863 132.344 99.2863 123.367V61.5606V59.5606H97.2863H42.8281M36 164.624L37.8094 165.476L38.6077 163.781M36 164.624L36.9899 162.886C37.5294 163.193 38.0686 163.491 38.6077 163.781M38.6077 163.781C43.933 166.639 49.2367 168.623 54.5206 169.803C60.3968 171.116 66.5015 171.763 72.783 171.763C74.7259 171.763 77.2355 171.66 80.2583 171.4L80.2599 171.4C83.239 171.146 86.3942 170.611 89.7828 169.739L89.7897 169.737L89.7966 169.736C93.1263 168.904 96.5681 167.61 100.154 165.888M42.8281 59.5606V40.3701M42.8281 59.5606H40.8281V40.3701H42.8281M42.8281 40.3701H122.832M42.8281 40.3701V38.3701H122.832V40.3701M122.832 40.3701V123.182C122.832 130.235 121.88 136.799 120.017 142.935M120.017 142.935C118.169 148.928 114.844 154.29 109.995 159.007M120.017 142.935C120.017 142.934 120.017 142.932 120.018 142.931L121.929 143.52L120.016 142.939C120.016 142.937 120.016 142.936 120.017 142.935ZM109.995 159.007C106.931 161.906 103.641 164.187 100.154 165.888M109.995 159.007C109.999 159.004 110.002 159.001 110.005 158.998L111.38 160.451L109.986 159.017C109.989 159.014 109.992 159.01 109.995 159.007ZM100.154 165.888C100.153 165.888 100.151 165.889 100.15 165.89L101.026 167.687L100.16 165.885C100.158 165.886 100.156 165.887 100.154 165.888Z" fill="#DBF226" stroke="#DBF226" stroke-width="4"/>
<path id="logo_L" d="M200.788 121.801H221.71V172H133.275L133.058 40H156.577L156.796 150.787L156.8 152.783H158.796H198.788H200.788V150.783V121.801Z" fill="#DBF226" stroke="#DBF226" stroke-width="4"/>
<path id="logo_dot" d="M233.106 152.36H254V171.921H233.106V152.36Z" fill="#DBF226" stroke="#DBF226" stroke-width="4"/>
</g>
</g>
</svg>
